<svg width="100%" height="100%" xmlns="http://www.w3.org/2000/svg" viewBox="0 0 303.44 61.48">
    <defs>
        <style>.cls-1{fill:#ffa92f;}.cls-2{fill:#fff;}</style>
    </defs>

    <path d="M74.79,15.91h5.94V45H74.79Z"/>
    <path d="M86.25,43.82A5.81,5.81,0,0,1,84.07,39a6,6,0,0,1,2.08-4.9,9,9,0,0,1,5.9-1.75,14.67,14.67,0,0,1,3.23.35,11.22,11.22,0,0,1,2.71,1v-.47a2.89,2.89,0,0,0-1.26-2.6,7.12,7.12,0,0,0-3.85-.83,15.54,15.54,0,0,0-6.37,1.3V26.81a15.07,15.07,0,0,1,3.26-.93,21.84,21.84,0,0,1,4-.37q5.11,0,7.63,2.1a7.26,7.26,0,0,1,2.52,5.88V45H98.35V43.25a8.92,8.92,0,0,1-6.45,2.32A8.8,8.8,0,0,1,86.25,43.82Zm9.89-2.74A4.38,4.38,0,0,0,98,39.55V37.66a7.78,7.78,0,0,0-4.4-1.34,4.06,4.06,0,0,0-2.54.69,2.42,2.42,0,0,0-.88,2A2.26,2.26,0,0,0,91,41a4,4,0,0,0,2.48.67A6.07,6.07,0,0,0,96.14,41.08Z"/>
    <path d="M107.86,26.1h5.74v2.71a7.17,7.17,0,0,1,3.19-2.1,13.65,13.65,0,0,1,4.64-.73V30.5a12.83,12.83,0,0,0-4.78.83,5,5,0,0,0-2.85,2.52V45h-5.94Z"/>
    <path d="M123.57,43.82A5.81,5.81,0,0,1,121.39,39a6.05,6.05,0,0,1,2.09-4.9,9,9,0,0,1,5.9-1.75,14.64,14.64,0,0,1,3.22.35,11.06,11.06,0,0,1,2.71,1v-.47a2.9,2.9,0,0,0-1.25-2.6,7.16,7.16,0,0,0-3.86-.83,15.54,15.54,0,0,0-6.37,1.3V26.81a15.24,15.24,0,0,1,3.26-.93,21.87,21.87,0,0,1,4-.37c3.4,0,5.95.7,7.63,2.1a7.28,7.28,0,0,1,2.51,5.88V45h-5.58V43.25a8.92,8.92,0,0,1-6.45,2.32A8.8,8.8,0,0,1,123.57,43.82Zm9.9-2.74a4.41,4.41,0,0,0,1.84-1.53V37.66a7.76,7.76,0,0,0-4.4-1.34,4.06,4.06,0,0,0-2.54.69,2.42,2.42,0,0,0-.88,2,2.28,2.28,0,0,0,.86,1.92,4,4,0,0,0,2.48.67A6.15,6.15,0,0,0,133.47,41.08Z"/>
    <path d="M142.94,26.1h5l5.11,13.06,5.11-13.06h5L155.37,45h-4.64Z"/>
    <path d="M169.57,43a9.06,9.06,0,0,1-3.11-7.33,9.92,9.92,0,0,1,2.77-7.4q2.78-2.71,7.93-2.71a12.05,12.05,0,0,1,5.74,1.26,8.59,8.59,0,0,1,3.58,3.48,10.26,10.26,0,0,1,1.22,5v2.4H172.12q.63,3.62,6.77,3.62a23.33,23.33,0,0,0,3.74-.32A16,16,0,0,0,186,40.1v4.17a15.44,15.44,0,0,1-3.54.94,26.36,26.36,0,0,1-4.33.36C174.48,45.57,171.64,44.69,169.57,43Zm12.5-9.14a3.85,3.85,0,0,0-1.41-2.93,5.55,5.55,0,0,0-3.58-1.05,5.44,5.44,0,0,0-3.54,1.07,3.9,3.9,0,0,0-1.42,2.91Z"/>
    <path d="M191,15.91h5.94V45H191Z"/>
    <path class="cls-1" d="M204,43.74a7.18,7.18,0,0,1-1.71-5.1V30.39H199.5V26.1h2.75V20.44h5.94V26.1h4.44v4.29h-4.44v7.47a3.63,3.63,0,0,0,.63,2.38,2.86,2.86,0,0,0,2.24.72,5.21,5.21,0,0,0,2.48-.62v4.44a11.58,11.58,0,0,1-4.56.79A6.54,6.54,0,0,1,204,43.74Z"/>
    <path class="cls-1" d="M216.29,26.1H222v2.71a7.11,7.11,0,0,1,3.19-2.1,13.65,13.65,0,0,1,4.64-.73V30.5a12.83,12.83,0,0,0-4.78.83,5,5,0,0,0-2.85,2.52V45h-5.94Z"/>
    <path class="cls-1" d="M233.32,22.28a3,3,0,0,1-.94-2.28,3,3,0,0,1,.94-2.26,3.39,3.39,0,0,1,4.64,0A3,3,0,0,1,238.9,20a3,3,0,0,1-.94,2.28,3.41,3.41,0,0,1-4.64,0Zm-.67,3.82h6V45h-6Z"/>
    <path class="cls-1" d="M245.24,43a9.21,9.21,0,0,1-3-7.37,9.29,9.29,0,0,1,3-7.42,12,12,0,0,1,8.16-2.65,13.82,13.82,0,0,1,7.39,1.73v4.68a8.85,8.85,0,0,0-2.93-1.34,13.91,13.91,0,0,0-3.52-.43A6.82,6.82,0,0,0,250,31.49a4.94,4.94,0,0,0-1.65,4.09,4.93,4.93,0,0,0,1.64,4.07A6.73,6.73,0,0,0,254.32,41a12.31,12.31,0,0,0,6.73-1.84v4.64a14.44,14.44,0,0,1-7.67,1.81A12,12,0,0,1,245.24,43Z"/>
    <path class="cls-1" d="M264.35,15.91h5.94V34.08l6.88-8h6.88l-8,9.2L285,45h-6.89l-7.86-8.5V45h-5.94Z"/>
    <path class="cls-1" d="M290.17,45.11a11.69,11.69,0,0,1-3.8-1.27V39.19a14.61,14.61,0,0,0,3.78,1.54,16,16,0,0,0,4.09.59A7.19,7.19,0,0,0,296.6,41a1,1,0,0,0,.75-1,1.21,1.21,0,0,0-.44-1,4,4,0,0,0-1.31-.67c-.59-.2-1.57-.49-2.93-.89a20.64,20.64,0,0,1-3.76-1.43,5.34,5.34,0,0,1-2.05-1.83,5.25,5.25,0,0,1-.68-2.83A4.9,4.9,0,0,1,288.52,27a11.84,11.84,0,0,1,6.35-1.47,21.52,21.52,0,0,1,4.07.41A10.88,10.88,0,0,1,302.18,27v4.53a9.8,9.8,0,0,0-3-1.22,14,14,0,0,0-3.56-.48,7.71,7.71,0,0,0-2.49.32,1.18,1.18,0,0,0-.89,1.18,1.23,1.23,0,0,0,.85,1.14,20.93,20.93,0,0,0,3.16,1l.79.2a16.54,16.54,0,0,1,3.85,1.47,4.82,4.82,0,0,1,1.95,1.93,6.19,6.19,0,0,1,.57,2.81A4.82,4.82,0,0,1,301.2,44a11.33,11.33,0,0,1-6.49,1.56A24.87,24.87,0,0,1,290.17,45.11Z"/><path class="cls-1" d="M56.6,39.85V21.63a12.52,12.52,0,0,0-6.26-10.84L34.56,1.68A12.5,12.5,0,0,0,22,1.68L6.26,10.79A12.52,12.52,0,0,0,0,21.63V39.85A12.52,12.52,0,0,0,6.26,50.69L22,59.8a12.5,12.5,0,0,0,12.52,0l15.78-9.11A12.52,12.52,0,0,0,56.6,39.85Z"/><path d="M34.06,45.39H22.26A2.32,2.32,0,0,1,20,43.09l-.09-13.46h3.92l.1,11.84H36.37v1.61A2.32,2.32,0,0,1,34.06,45.39Z"/><path class="cls-2" d="M40.25,25.71H16.35a2,2,0,0,0,0,3.92h16.1V41.47h3.92V29.63h3.88a2,2,0,0,0,0-3.92Z"/><polygon points="28.61 13.5 29.34 15.85 31.22 17.43 28.87 18.16 27.29 20.04 26.56 17.69 24.69 16.11 27.03 15.38 28.61 13.5"/><polygon class="cls-2" points="20.42 18 20.76 19.39 21.79 20.38 20.4 20.71 19.41 21.74 19.08 20.35 18.05 19.36 19.43 19.03 20.42 18"/>
    <polygon class="cls-2" points="35.02 18.33 34.69 19.71 33.66 20.7 35.05 21.04 36.04 22.07 36.37 20.68 37.4 19.69 36.01 19.36 35.02 18.33"/>
</svg>
